<svg width="37" height="32" viewBox="0 0 37 32" fill="none" xmlns="http://www.w3.org/2000/svg">
<mask id="path-1-inside-1_17_350" fill="white">
<path fill-rule="evenodd" clip-rule="evenodd" d="M17.5 1.00582C17.5 1.00582 1.00011 13.0116 0.500002 13.5058C-0.000108063 14 0.499996 14.5 1.00004 14C1.50009 13.5 8.91418 8.31024 8.91418 8.31024L17.9142 1.81024L26.5 8.00002C26.5 8.00002 34.8351 14.2603 35.4999 14.5C36.1647 14.7397 36.2207 14.2842 35.9999 14C35.779 13.7159 18.5 1.00582 18.5 1.00582C18.1089 0.753775 17.8921 0.736465 17.5 1.00582ZM4 30.9773V15.4773C4 15 5 15 5 15.4773V22.9942V30.9773H14V19.9942C14 18 21 18 21 19.9942V30.9773H30V15.4773C30 15 31 15 31 15.4773V30.9773C30.9031 31.5682 30.6538 31.7885 30 31.9773H21C20.335 31.8157 20.0686 31.6374 20 30.9773V20.4773C18.2845 18.9947 16.6871 18.9549 15 20.4773V30.9773C14.8946 31.6064 14.707 31.8528 14 31.9773H5C4.30643 31.7498 4.06391 31.5435 4 30.9773Z"/>
</mask>
<path fill-rule="evenodd" clip-rule="evenodd" d="M17.5 1.00582C17.5 1.00582 1.00011 13.0116 0.500002 13.5058C-0.000108063 14 0.499996 14.5 1.00004 14C1.50009 13.5 8.91418 8.31024 8.91418 8.31024L17.9142 1.81024L26.5 8.00002C26.5 8.00002 34.8351 14.2603 35.4999 14.5C36.1647 14.7397 36.2207 14.2842 35.9999 14C35.779 13.7159 18.5 1.00582 18.5 1.00582C18.1089 0.753775 17.8921 0.736465 17.5 1.00582ZM4 30.9773V15.4773C4 15 5 15 5 15.4773V22.9942V30.9773H14V19.9942C14 18 21 18 21 19.9942V30.9773H30V15.4773C30 15 31 15 31 15.4773V30.9773C30.9031 31.5682 30.6538 31.7885 30 31.9773H21C20.335 31.8157 20.0686 31.6374 20 30.9773V20.4773C18.2845 18.9947 16.6871 18.9549 15 20.4773V30.9773C14.8946 31.6064 14.707 31.8528 14 31.9773H5C4.30643 31.7498 4.06391 31.5435 4 30.9773Z" fill="#CABDAF"/>
<path d="M0.500002 13.5058L0.429713 13.4347L0.429713 13.4347L0.500002 13.5058ZM17.5 1.00582L17.4434 0.923368L17.4412 0.924961L17.5 1.00582ZM1.00004 14L1.07075 14.0707L1.00004 14ZM8.91418 8.31024L8.97153 8.39217L8.97273 8.39131L8.91418 8.31024ZM17.9142 1.81024L17.9727 1.72912L17.9141 1.68692L17.8556 1.72917L17.9142 1.81024ZM26.5 8.00002L26.5601 7.92005L26.5585 7.9189L26.5 8.00002ZM18.5 1.00582L18.5594 0.925113L18.5542 0.921765L18.5 1.00582ZM4 30.9773H3.89937L3.90063 30.9885L4 30.9773ZM5 30.9773H4.9V31.0773H5V30.9773ZM14 30.9773V31.0773H14.1V30.9773H14ZM21 30.9773H20.9V31.0773H21V30.9773ZM30 30.9773V31.0773H30.1V30.9773H30ZM31 30.9773L31.0987 30.9935L31.1 30.9854V30.9773H31ZM30 31.9773V32.0773H30.0141L30.0277 32.0734L30 31.9773ZM21 31.9773L20.9764 32.0745L20.988 32.0773H21V31.9773ZM20 30.9773H19.8995L19.9005 30.9876L20 30.9773ZM20 20.4773H20.1V20.4315L20.0654 20.4016L20 20.4773ZM15 20.4773L14.933 20.403L14.9 20.4328V20.4773H15ZM15 30.9773L15.0986 30.9938L15.1 30.9856V30.9773H15ZM14 31.9773V32.0773H14.0087L14.0173 32.0758L14 31.9773ZM5 31.9773L4.96883 32.0723L4.98402 32.0773H5V31.9773ZM0.570291 13.577C0.596237 13.5513 0.684132 13.4798 0.834636 13.363C0.982383 13.2484 1.18482 13.0944 1.43419 12.9067C1.93287 12.5314 2.61814 12.0221 3.42667 11.4246C5.04366 10.2297 7.15287 8.6828 9.24658 7.15121C11.3403 5.61964 13.4183 4.10351 14.973 2.97026C15.7503 2.40364 16.3968 1.93274 16.8489 1.6035C17.075 1.43888 17.2525 1.30967 17.3734 1.22162C17.4339 1.1776 17.4803 1.14386 17.5115 1.12113C17.5271 1.10977 17.5389 1.10115 17.5469 1.09538C17.5508 1.0925 17.5538 1.09032 17.5558 1.08887C17.5568 1.08814 17.5576 1.08759 17.5581 1.08723C17.5583 1.08705 17.5585 1.08691 17.5586 1.08682C17.5588 1.08673 17.5588 1.08668 17.5 1.00582C17.4412 0.924961 17.4411 0.925007 17.441 0.925099C17.4408 0.92519 17.4407 0.925327 17.4404 0.92551C17.4399 0.925875 17.4392 0.926422 17.4382 0.92715C17.4362 0.928604 17.4332 0.930781 17.4292 0.933667C17.4213 0.939441 17.4094 0.948055 17.3938 0.959422C17.3626 0.982154 17.3162 1.01589 17.2557 1.05992C17.1348 1.14798 16.9573 1.27719 16.7312 1.44182C16.279 1.77108 15.6325 2.242 14.8552 2.80864C13.3005 3.94193 11.2223 5.45813 9.1285 6.98979C7.03472 8.52143 4.9252 10.0686 3.3078 11.2638C2.49914 11.8614 1.81331 12.3711 1.31392 12.7469C1.06427 12.9348 0.860929 13.0895 0.712034 13.205C0.565897 13.3184 0.46628 13.3986 0.429713 13.4347L0.570291 13.577ZM0.929334 13.9293C0.698213 14.1604 0.513935 14.1229 0.445463 14.0548C0.377476 13.9872 0.339431 13.8051 0.570291 13.577L0.429713 13.4347C0.160462 13.7008 0.122415 14.0157 0.304464 14.1967C0.486028 14.3772 0.801825 14.3396 1.07075 14.0707L0.929334 13.9293ZM8.91418 8.31024C8.85683 8.22832 8.8568 8.22834 8.85675 8.22838C8.85669 8.22842 8.8566 8.22848 8.85649 8.22856C8.85627 8.22871 8.85593 8.22895 8.85548 8.22927C8.85458 8.2299 8.85323 8.23084 8.85145 8.23209C8.84788 8.23458 8.84256 8.23831 8.83553 8.24323C8.82148 8.25307 8.80063 8.26768 8.77341 8.28675C8.71897 8.32489 8.63907 8.38089 8.5372 8.45235C8.33347 8.59525 8.04187 8.79996 7.69038 9.04716C6.98743 9.54156 6.04492 10.206 5.08675 10.8861C4.12863 11.5661 3.15462 12.262 2.38875 12.8192C2.00586 13.0978 1.67463 13.3419 1.4233 13.5323C1.17483 13.7204 0.997814 13.8608 0.929334 13.9293L1.07075 14.0707C1.12728 14.0142 1.29134 13.8831 1.54404 13.6917C1.79387 13.5025 2.12391 13.2592 2.50641 12.9809C3.27133 12.4244 4.24459 11.7291 5.20251 11.0492C6.16036 10.3693 7.10263 9.70506 7.80544 9.21075C8.15684 8.9636 8.44838 8.75895 8.65205 8.61608C8.75389 8.54465 8.83376 8.48867 8.88817 8.45054C8.91538 8.43148 8.93622 8.41688 8.95026 8.40705C8.95728 8.40214 8.96259 8.39842 8.96616 8.39592C8.96794 8.39467 8.96928 8.39373 8.97018 8.39311C8.97063 8.39279 8.97096 8.39256 8.97119 8.3924C8.9713 8.39232 8.97138 8.39226 8.97144 8.39222C8.9715 8.39218 8.97152 8.39216 8.91418 8.31024ZM17.8556 1.72917L8.85563 8.22917L8.97273 8.39131L17.9727 1.89131L17.8556 1.72917ZM26.5585 7.9189L17.9727 1.72912L17.8557 1.89136L26.4416 8.08114L26.5585 7.9189ZM35.5338 14.4059C35.5029 14.3948 35.4395 14.3615 35.341 14.302C35.2452 14.244 35.1229 14.1654 34.9777 14.0687C34.6874 13.8753 34.3082 13.6118 33.8711 13.3017C32.9969 12.6816 31.8932 11.877 30.8099 11.0796C29.7267 10.2822 28.6643 9.49235 27.8726 8.90178C27.4767 8.6065 27.1486 8.36106 26.9194 8.18944C26.8048 8.10363 26.715 8.03628 26.6538 7.99039C26.6232 7.96744 26.5998 7.94985 26.584 7.93801C26.5761 7.93208 26.5701 7.9276 26.5661 7.92459C26.5641 7.92309 26.5626 7.92195 26.5616 7.9212C26.5611 7.92082 26.5607 7.92053 26.5605 7.92034C26.5603 7.92025 26.5603 7.92018 26.5602 7.92013C26.5601 7.92008 26.5601 7.92006 26.5 8.00002C26.44 8.07998 26.44 8.08 26.4401 8.08005C26.4401 8.0801 26.4402 8.08017 26.4404 8.08027C26.4406 8.08046 26.441 8.08074 26.4415 8.08112C26.4425 8.08188 26.444 8.08302 26.446 8.08453C26.4501 8.08754 26.456 8.09203 26.4639 8.09796C26.4797 8.10982 26.5032 8.12742 26.5338 8.15038C26.595 8.19631 26.6849 8.26369 26.7995 8.34953C27.0288 8.52121 27.357 8.76672 27.753 9.06209C28.5449 9.65281 29.6077 10.443 30.6914 11.2407C31.775 12.0383 32.8797 12.8437 33.7553 13.4648C34.1931 13.7753 34.5741 14.0402 34.8669 14.2351C35.0132 14.3326 35.1382 14.413 35.2375 14.4731C35.3342 14.5316 35.4137 14.5753 35.466 14.5941L35.5338 14.4059ZM35.9209 14.0614C35.9674 14.1212 35.9981 14.1887 36.0103 14.2509C36.0226 14.3139 36.0146 14.3634 35.9956 14.3962C35.9785 14.4255 35.9453 14.4541 35.8756 14.464C35.8024 14.4743 35.6917 14.4629 35.5338 14.4059L35.466 14.5941C35.6405 14.657 35.786 14.6786 35.9035 14.662C36.0243 14.645 36.116 14.5869 36.1684 14.4968C36.2189 14.4101 36.2251 14.3075 36.2066 14.2126C36.1879 14.1169 36.1428 14.0209 36.0788 13.9387L35.9209 14.0614ZM18.5 1.00582C18.4407 1.08638 18.4408 1.08642 18.4409 1.08652C18.4411 1.08662 18.4413 1.08676 18.4415 1.08696C18.4421 1.08734 18.4428 1.08792 18.4439 1.08869C18.446 1.09023 18.4491 1.09253 18.4533 1.09559C18.4616 1.1017 18.474 1.11081 18.4903 1.12284C18.523 1.1469 18.5715 1.1826 18.6348 1.22918C18.7614 1.32233 18.9472 1.459 19.1836 1.63305C19.6565 1.98113 20.3323 2.47872 21.144 3.07671C22.7673 4.2727 24.9341 5.87031 27.1077 7.47678C29.2813 9.08327 31.4618 10.6986 33.1126 11.93C33.938 12.5457 34.6308 13.0653 35.1241 13.4397C35.3707 13.627 35.5672 13.7777 35.7053 13.886C35.7744 13.9401 35.8284 13.9833 35.8665 14.0148C35.8857 14.0306 35.9002 14.0431 35.9105 14.0523C35.923 14.0634 35.9239 14.0652 35.9209 14.0614L36.0788 13.9387C36.069 13.926 36.0546 13.9128 36.0438 13.9031C36.0308 13.8915 36.014 13.8772 35.994 13.8607C35.9538 13.8275 35.8982 13.7831 35.8286 13.7286C35.6893 13.6194 35.4919 13.4679 35.245 13.2804C34.751 12.9054 34.0577 12.3854 33.2321 11.7696C31.581 10.538 29.4003 8.92248 27.2266 7.31594C25.0528 5.70939 22.886 4.11172 21.2626 2.9157C20.4509 2.31768 19.7751 1.82008 19.3022 1.47198C19.0657 1.29792 18.88 1.16125 18.7534 1.06808C18.6901 1.0215 18.6415 0.985799 18.6088 0.961741C18.5925 0.949711 18.5801 0.940593 18.5718 0.934482C18.5676 0.931427 18.5645 0.929123 18.5624 0.927583C18.5614 0.926813 18.5606 0.926234 18.56 0.925848C18.5598 0.925654 18.5596 0.925509 18.5595 0.925412C18.5593 0.925315 18.5593 0.925267 18.5 1.00582ZM17.5566 1.08824C17.7464 0.957831 17.8777 0.90856 17.9989 0.910285C18.1218 0.912033 18.2539 0.966178 18.4458 1.08988L18.5542 0.921765C18.355 0.793418 18.1831 0.712885 18.0018 0.710306C17.8189 0.707704 17.6456 0.784456 17.4434 0.923399L17.5566 1.08824ZM3.9 15.4773V30.9773H4.1V15.4773H3.9ZM5.1 15.4773C5.1 15.317 5.01381 15.1985 4.89744 15.1245C4.78388 15.0522 4.639 15.0193 4.5 15.0193C4.361 15.0193 4.21612 15.0522 4.10256 15.1245C3.98619 15.1985 3.9 15.317 3.9 15.4773H4.1C4.1 15.3989 4.13881 15.3385 4.20994 15.2932C4.28388 15.2461 4.389 15.2193 4.5 15.2193C4.611 15.2193 4.71612 15.2461 4.79006 15.2932C4.86119 15.3385 4.9 15.3989 4.9 15.4773H5.1ZM5.1 22.9942V15.4773H4.9V22.9942H5.1ZM5.1 30.9773V22.9942H4.9V30.9773H5.1ZM14 30.8773H5V31.0773H14V30.8773ZM13.9 19.9942V30.9773H14.1V19.9942H13.9ZM21.1 19.9942C21.1 19.4274 20.6037 19.0304 19.9418 18.779C19.2706 18.524 18.3826 18.3986 17.5 18.3986C16.6174 18.3986 15.7294 18.524 15.0582 18.779C14.3963 19.0304 13.9 19.4274 13.9 19.9942H14.1C14.1 19.5639 14.4787 19.2131 15.1293 18.9659C15.7706 18.7223 16.6326 18.5986 17.5 18.5986C18.3674 18.5986 19.2294 18.7223 19.8707 18.9659C20.5213 19.2131 20.9 19.5639 20.9 19.9942H21.1ZM21.1 30.9773V19.9942H20.9V30.9773H21.1ZM30 30.8773H21V31.0773H30V30.8773ZM29.9 15.4773V30.9773H30.1V15.4773H29.9ZM31.1 15.4773C31.1 15.317 31.0138 15.1985 30.8974 15.1245C30.7839 15.0522 30.639 15.0193 30.5 15.0193C30.361 15.0193 30.2161 15.0522 30.1026 15.1245C29.9862 15.1985 29.9 15.317 29.9 15.4773H30.1C30.1 15.3989 30.1388 15.3385 30.2099 15.2932C30.2839 15.2461 30.389 15.2193 30.5 15.2193C30.611 15.2193 30.7161 15.2461 30.7901 15.2932C30.8612 15.3385 30.9 15.3989 30.9 15.4773H31.1ZM31.1 30.9773V15.4773H30.9V30.9773H31.1ZM30.0277 32.0734C30.3587 31.9778 30.6043 31.87 30.7787 31.6996C30.9559 31.5266 31.0484 31.3004 31.0987 30.9935L30.9013 30.9611C30.8548 31.2451 30.7741 31.4245 30.639 31.5566C30.5011 31.6913 30.2951 31.788 29.9723 31.8812L30.0277 32.0734ZM21 32.0773H30V31.8773H21V32.0773ZM19.9005 30.9876C19.936 31.3291 20.0247 31.5667 20.2082 31.7375C20.3872 31.904 20.6431 31.9935 20.9764 32.0745L21.0236 31.8801C20.6919 31.7995 20.4821 31.7191 20.3445 31.591C20.2114 31.4672 20.1326 31.2856 20.0995 30.967L19.9005 30.9876ZM19.9 20.4773V30.9773H20.1V20.4773H19.9ZM15.067 20.5515C15.899 19.8008 16.697 19.4456 17.4887 19.4504C18.2812 19.4552 19.0873 19.8207 19.9346 20.5529L20.0654 20.4016C19.1972 19.6513 18.3468 19.2556 17.4899 19.2504C16.6323 19.2453 15.7881 19.6314 14.933 20.403L15.067 20.5515ZM15.1 30.9773V20.4773H14.9V30.9773H15.1ZM14.0173 32.0758C14.3777 32.0123 14.6273 31.9146 14.798 31.7355C14.9682 31.5569 15.0453 31.3125 15.0986 30.9938L14.9014 30.9608C14.8494 31.2712 14.78 31.4645 14.6532 31.5975C14.527 31.73 14.3292 31.8178 13.9827 31.8788L14.0173 32.0758ZM5 32.0773H14V31.8773H5V32.0773ZM3.90063 30.9885C3.9341 31.285 4.01647 31.5035 4.19422 31.6761C4.36712 31.8439 4.62036 31.958 4.96883 32.0723L5.03117 31.8823C4.68607 31.7691 4.47127 31.6663 4.33353 31.5326C4.20065 31.4036 4.12981 31.2358 4.09937 30.9661L3.90063 30.9885Z" fill="#CABDAF" mask="url(#path-1-inside-1_17_350)"/>
</svg>
